<svg width="145" height="19" viewBox="0 0 145 19" fill="none" xmlns="http://www.w3.org/2000/svg">
<path d="M6.83984 11.7539H4.03906V18H0.523438V0.9375H6.86328C8.87891 0.9375 10.4336 1.38672 11.5273 2.28516C12.6211 3.18359 13.168 4.45312 13.168 6.09375C13.168 7.25781 12.9141 8.23047 12.4062 9.01172C11.9062 9.78516 11.1445 10.4023 10.1211 10.8633L13.8125 17.8359V18H10.0391L6.83984 11.7539ZM4.03906 8.90625H6.875C7.75781 8.90625 8.44141 8.68359 8.92578 8.23828C9.41016 7.78516 9.65234 7.16406 9.65234 6.375C9.65234 5.57031 9.42188 4.9375 8.96094 4.47656C8.50781 4.01562 7.80859 3.78516 6.86328 3.78516H4.03906V8.90625ZM20.9848 18.2344C19.1255 18.2344 17.6098 17.6641 16.438 16.5234C15.2739 15.3828 14.6919 13.8633 14.6919 11.9648V11.6367C14.6919 10.3633 14.938 9.22656 15.4302 8.22656C15.9223 7.21875 16.6177 6.44531 17.5161 5.90625C18.4223 5.35938 19.4536 5.08594 20.6098 5.08594C22.3442 5.08594 23.7075 5.63281 24.6997 6.72656C25.6997 7.82031 26.1997 9.37109 26.1997 11.3789V12.7617H18.1255C18.2348 13.5898 18.563 14.2539 19.1098 14.7539C19.6645 15.2539 20.3638 15.5039 21.2075 15.5039C22.5122 15.5039 23.5317 15.0312 24.2661 14.0859L25.9302 15.9492C25.4223 16.668 24.7348 17.2305 23.8677 17.6367C23.0005 18.0352 22.0395 18.2344 20.9848 18.2344ZM20.5981 7.82812C19.9263 7.82812 19.3794 8.05469 18.9575 8.50781C18.5434 8.96094 18.2778 9.60938 18.1606 10.4531H22.8716V10.1836C22.8559 9.43359 22.6528 8.85547 22.2622 8.44922C21.8716 8.03516 21.3169 7.82812 20.5981 7.82812ZM27.1259 11.5664C27.1259 9.58984 27.5673 8.01562 28.4502 6.84375C29.3408 5.67188 30.5556 5.08594 32.0947 5.08594C33.3291 5.08594 34.3486 5.54688 35.1533 6.46875V0H38.5517V18H35.4931L35.3291 16.6523C34.4853 17.707 33.3994 18.2344 32.0713 18.2344C30.5791 18.2344 29.3798 17.6484 28.4736 16.4766C27.5752 15.2969 27.1259 13.6602 27.1259 11.5664ZM30.5127 11.8125C30.5127 13 30.7197 13.9102 31.1338 14.543C31.5478 15.1758 32.1494 15.4922 32.9384 15.4922C33.9853 15.4922 34.7236 15.0508 35.1533 14.168V9.16406C34.7314 8.28125 34.0009 7.83984 32.9619 7.83984C31.3291 7.83984 30.5127 9.16406 30.5127 11.8125ZM46.5327 18.2344C44.6733 18.2344 43.1577 17.6641 41.9858 16.5234C40.8217 15.3828 40.2397 13.8633 40.2397 11.9648V11.6367C40.2397 10.3633 40.4858 9.22656 40.978 8.22656C41.4702 7.21875 42.1655 6.44531 43.0639 5.90625C43.9702 5.35938 45.0014 5.08594 46.1577 5.08594C47.892 5.08594 49.2553 5.63281 50.2475 6.72656C51.2475 7.82031 51.7475 9.37109 51.7475 11.3789V12.7617H43.6733C43.7827 13.5898 44.1108 14.2539 44.6577 14.7539C45.2123 15.2539 45.9116 15.5039 46.7553 15.5039C48.06 15.5039 49.0795 15.0312 49.8139 14.0859L51.478 15.9492C50.9702 16.668 50.2827 17.2305 49.4155 17.6367C48.5483 18.0352 47.5873 18.2344 46.5327 18.2344ZM46.1459 7.82812C45.4741 7.82812 44.9272 8.05469 44.5053 8.50781C44.0913 8.96094 43.8256 9.60938 43.7084 10.4531H48.4194V10.1836C48.4038 9.43359 48.2006 8.85547 47.81 8.44922C47.4194 8.03516 46.8647 7.82812 46.1459 7.82812ZM60.0683 14.4961C60.0683 14.082 59.8613 13.7578 59.4472 13.5234C59.0409 13.2812 58.3847 13.0664 57.4784 12.8789C54.4628 12.2461 52.955 10.9648 52.955 9.03516C52.955 7.91016 53.4198 6.97266 54.3495 6.22266C55.287 5.46484 56.5097 5.08594 58.0175 5.08594C59.6269 5.08594 60.912 5.46484 61.873 6.22266C62.8417 6.98047 63.3261 7.96484 63.3261 9.17578H59.9394C59.9394 8.69141 59.7831 8.29297 59.4706 7.98047C59.1581 7.66016 58.6698 7.5 58.0058 7.5C57.4355 7.5 56.9941 7.62891 56.6816 7.88672C56.3691 8.14453 56.2128 8.47266 56.2128 8.87109C56.2128 9.24609 56.3886 9.55078 56.7402 9.78516C57.0995 10.0117 57.7011 10.2109 58.5448 10.3828C59.3886 10.5469 60.0995 10.7344 60.6777 10.9453C62.4667 11.6016 63.3613 12.7383 63.3613 14.3555C63.3613 15.5117 62.8652 16.4492 61.873 17.168C60.8808 17.8789 59.5995 18.2344 58.0292 18.2344C56.9667 18.2344 56.0214 18.0469 55.1933 17.6719C54.373 17.2891 53.7284 16.7695 53.2597 16.1133C52.7909 15.4492 52.5566 14.7344 52.5566 13.9688H55.7675C55.7988 14.5703 56.0214 15.0312 56.4355 15.3516C56.8495 15.6719 57.4042 15.832 58.0995 15.832C58.748 15.832 59.2363 15.7109 59.5644 15.4688C59.9003 15.2188 60.0683 14.8945 60.0683 14.4961ZM79.6395 13.5234C79.6395 12.8594 79.4052 12.3516 78.9364 12C78.4677 11.6406 77.6239 11.2656 76.4052 10.875C75.1864 10.4766 74.2216 10.0859 73.5106 9.70312C71.5731 8.65625 70.6044 7.24609 70.6044 5.47266C70.6044 4.55078 70.8622 3.73047 71.3778 3.01172C71.9013 2.28516 72.6473 1.71875 73.6161 1.3125C74.5927 0.90625 75.6864 0.703125 76.8973 0.703125C78.1161 0.703125 79.202 0.925781 80.1552 1.37109C81.1083 1.80859 81.8466 2.42969 82.37 3.23438C82.9013 4.03906 83.1669 4.95312 83.1669 5.97656H79.6513C79.6513 5.19531 79.4052 4.58984 78.913 4.16016C78.4208 3.72266 77.7294 3.50391 76.8388 3.50391C75.9794 3.50391 75.3114 3.6875 74.8348 4.05469C74.3583 4.41406 74.12 4.89062 74.12 5.48438C74.12 6.03906 74.3973 6.50391 74.952 6.87891C75.5145 7.25391 76.3388 7.60547 77.4247 7.93359C79.4247 8.53516 80.8817 9.28125 81.7958 10.1719C82.7098 11.0625 83.1669 12.1719 83.1669 13.5C83.1669 14.9766 82.6083 16.1367 81.4911 16.9805C80.3739 17.8164 78.87 18.2344 76.9794 18.2344C75.6669 18.2344 74.4716 17.9961 73.3934 17.5195C72.3153 17.0352 71.4911 16.375 70.9208 15.5391C70.3583 14.7031 70.077 13.7344 70.077 12.6328H73.6044C73.6044 14.5156 74.7294 15.457 76.9794 15.457C77.8153 15.457 78.4677 15.2891 78.9364 14.9531C79.4052 14.6094 79.6395 14.1328 79.6395 13.5234ZM84.3275 11.543C84.3275 10.2852 84.5697 9.16406 85.0541 8.17969C85.5384 7.19531 86.2337 6.43359 87.14 5.89453C88.0541 5.35547 89.1127 5.08594 90.3158 5.08594C92.0267 5.08594 93.4212 5.60938 94.4994 6.65625C95.5853 7.70312 96.1908 9.125 96.3158 10.9219L96.3392 11.7891C96.3392 13.7344 95.7962 15.2969 94.7103 16.4766C93.6244 17.6484 92.1673 18.2344 90.3392 18.2344C88.5111 18.2344 87.0502 17.6484 85.9564 16.4766C84.8705 15.3047 84.3275 13.7109 84.3275 11.6953V11.543ZM87.7142 11.7891C87.7142 12.9922 87.9408 13.9141 88.3939 14.5547C88.847 15.1875 89.4955 15.5039 90.3392 15.5039C91.1595 15.5039 91.8002 15.1914 92.2611 14.5664C92.722 13.9336 92.9525 12.9258 92.9525 11.543C92.9525 10.3633 92.722 9.44922 92.2611 8.80078C91.8002 8.15234 91.1517 7.82812 90.3158 7.82812C89.4877 7.82812 88.847 8.15234 88.3939 8.80078C87.9408 9.44141 87.7142 10.4375 87.7142 11.7891ZM103.219 15.5039C103.844 15.5039 104.351 15.332 104.742 14.9883C105.133 14.6445 105.336 14.1875 105.351 13.6172H108.527C108.519 14.4766 108.285 15.2656 107.824 15.9844C107.363 16.6953 106.73 17.25 105.926 17.6484C105.129 18.0391 104.246 18.2344 103.277 18.2344C101.465 18.2344 100.035 17.6602 98.9881 16.5117C97.9413 15.3555 97.4178 13.7617 97.4178 11.7305V11.5078C97.4178 9.55469 97.9373 7.99609 98.9764 6.83203C100.015 5.66797 101.441 5.08594 103.254 5.08594C104.84 5.08594 106.109 5.53906 107.062 6.44531C108.023 7.34375 108.512 8.54297 108.527 10.043H105.351C105.336 9.38672 105.133 8.85547 104.742 8.44922C104.351 8.03516 103.836 7.82812 103.195 7.82812C102.406 7.82812 101.808 8.11719 101.402 8.69531C101.004 9.26562 100.805 10.1953 100.805 11.4844V11.8359C100.805 13.1406 101.004 14.0781 101.402 14.6484C101.801 15.2188 102.406 15.5039 103.219 15.5039ZM113.555 18H110.157V5.32031H113.555V18ZM109.957 2.03906C109.957 1.53125 110.125 1.11328 110.461 0.785156C110.805 0.457031 111.27 0.292969 111.856 0.292969C112.434 0.292969 112.895 0.457031 113.239 0.785156C113.582 1.11328 113.754 1.53125 113.754 2.03906C113.754 2.55469 113.578 2.97656 113.227 3.30469C112.883 3.63281 112.426 3.79688 111.856 3.79688C111.285 3.79688 110.825 3.63281 110.473 3.30469C110.129 2.97656 109.957 2.55469 109.957 2.03906ZM123.223 18C123.067 17.6953 122.954 17.3164 122.884 16.8633C122.063 17.7773 120.997 18.2344 119.684 18.2344C118.442 18.2344 117.411 17.875 116.591 17.1562C115.778 16.4375 115.372 15.5312 115.372 14.4375C115.372 13.0938 115.868 12.0625 116.86 11.3438C117.86 10.625 119.302 10.2617 121.184 10.2539H122.743V9.52734C122.743 8.94141 122.591 8.47266 122.286 8.12109C121.989 7.76953 121.516 7.59375 120.868 7.59375C120.298 7.59375 119.848 7.73047 119.52 8.00391C119.2 8.27734 119.04 8.65234 119.04 9.12891H115.653C115.653 8.39453 115.88 7.71484 116.333 7.08984C116.786 6.46484 117.427 5.97656 118.255 5.625C119.083 5.26562 120.012 5.08594 121.044 5.08594C122.606 5.08594 123.845 5.48047 124.759 6.26953C125.68 7.05078 126.141 8.15234 126.141 9.57422V15.0703C126.149 16.2734 126.317 17.1836 126.645 17.8008V18H123.223ZM120.423 15.6445C120.923 15.6445 121.384 15.5352 121.805 15.3164C122.227 15.0898 122.54 14.7891 122.743 14.4141V12.2344H121.477C119.782 12.2344 118.88 12.8203 118.77 13.9922L118.759 14.1914C118.759 14.6133 118.907 14.9609 119.204 15.2344C119.501 15.5078 119.907 15.6445 120.423 15.6445ZM131.837 18H128.439V5.32031H131.837V18ZM128.24 2.03906C128.24 1.53125 128.408 1.11328 128.743 0.785156C129.087 0.457031 129.552 0.292969 130.138 0.292969C130.716 0.292969 131.177 0.457031 131.521 0.785156C131.865 1.11328 132.036 1.53125 132.036 2.03906C132.036 2.55469 131.861 2.97656 131.509 3.30469C131.165 3.63281 130.708 3.79688 130.138 3.79688C129.568 3.79688 129.107 3.63281 128.755 3.30469C128.411 2.97656 128.24 2.55469 128.24 2.03906ZM141.025 14.4961C141.025 14.082 140.818 13.7578 140.404 13.5234C139.998 13.2812 139.342 13.0664 138.435 12.8789C135.42 12.2461 133.912 10.9648 133.912 9.03516C133.912 7.91016 134.377 6.97266 135.306 6.22266C136.244 5.46484 137.467 5.08594 138.974 5.08594C140.584 5.08594 141.869 5.46484 142.83 6.22266C143.799 6.98047 144.283 7.96484 144.283 9.17578H140.896C140.896 8.69141 140.74 8.29297 140.428 7.98047C140.115 7.66016 139.627 7.5 138.963 7.5C138.392 7.5 137.951 7.62891 137.638 7.88672C137.326 8.14453 137.17 8.47266 137.17 8.87109C137.17 9.24609 137.345 9.55078 137.697 9.78516C138.056 10.0117 138.658 10.2109 139.502 10.3828C140.345 10.5469 141.056 10.7344 141.635 10.9453C143.424 11.6016 144.318 12.7383 144.318 14.3555C144.318 15.5117 143.822 16.4492 142.83 17.168C141.838 17.8789 140.556 18.2344 138.986 18.2344C137.924 18.2344 136.978 18.0469 136.15 17.6719C135.33 17.2891 134.685 16.7695 134.217 16.1133C133.748 15.4492 133.513 14.7344 133.513 13.9688H136.724C136.756 14.5703 136.978 15.0312 137.392 15.3516C137.806 15.6719 138.361 15.832 139.056 15.832C139.705 15.832 140.193 15.7109 140.521 15.4688C140.857 15.2188 141.025 14.8945 141.025 14.4961Z" fill="white"/>
</svg>
